<?xml version="1.0" encoding="UTF-8"?>
<svg version="1.1" xmlns="http://www.w3.org/2000/svg" width="986" height="394">
<path d="M0 0 C325.38 0 650.76 0 986 0 C986 130.02 986 260.04 986 394 C660.62 394 335.24 394 0 394 C0 263.98 0 133.96 0 0 Z " fill="#FEFEFE" transform="translate(0,0)"/>
<path d="M0 0 C4.20566368 1.4999884 6.04350954 4.49213279 8.3125 8.125 C8.70131348 8.74608643 9.09012695 9.36717285 9.49072266 10.00708008 C19.5301285 26.48395185 26.03915045 45.42616897 21.58837891 64.84130859 C18.19285851 77.29906433 12.82324071 88.73091241 5 99 C4.42894531 99.763125 3.85789063 100.52625 3.26953125 101.3125 C2.85058594 101.869375 2.43164062 102.42625 2 103 C-1.9541334 101.68195553 -3.13501543 99.25200681 -5.25 95.875 C-5.6433252 95.25117432 -6.03665039 94.62734863 -6.44189453 93.98461914 C-17.31920223 76.33925778 -23.82043656 56.52086663 -19.15625 35.6875 C-15.64308829 22.60215419 -8.85004854 10.20521222 0 0 Z " fill="#FFDE5B" transform="translate(184,144)"/>
<path d="M0 0 C0.66 0.33 1.32 0.66 2 1 C2.83729033 35.39653098 2.83729033 35.39653098 -2 47 C-2.42410156 48.05445313 -2.84820312 49.10890625 -3.28515625 50.1953125 C-8.36287558 61.48227636 -17.3284997 70.43099977 -27 78 C-27.66 78 -28.32 78 -29 78 C-29 78.66 -29 79.32 -29 80 C-30.60032137 80.84069415 -32.20541171 81.67231505 -33.8125 82.5 C-35.15248047 83.19609375 -35.15248047 83.19609375 -36.51953125 83.90625 C-39 85 -39 85 -42 85 C-41.23816406 83.77990234 -41.23816406 83.77990234 -40.4609375 82.53515625 C-33.32749846 70.78054223 -26.88346039 57.32238767 -26.8671875 43.32421875 C-26.86589844 42.24849609 -26.86460937 41.17277344 -26.86328125 40.06445312 C-26.86714844 38.95005859 -26.87101563 37.83566406 -26.875 36.6875 C-26.87113281 35.58470703 -26.86726562 34.48191406 -26.86328125 33.34570312 C-26.87029933 27.46806255 -27.10816248 21.81110002 -28 16 C-21.67824785 10.86613648 -15.2806437 6.90736276 -7.9375 3.4375 C-6.81226929 2.89996094 -6.81226929 2.89996094 -5.66430664 2.3515625 C-3.80620062 1.49903722 -1.90546034 0.74066066 0 0 Z " fill="#FFDE5B" transform="translate(239,158)"/>
<path d="M0 0 C7.25023492 2.13941358 13.53557131 5.08440319 20 9 C20.90234375 9.5259375 21.8046875 10.051875 22.734375 10.59375 C23.56453125 11.1403125 24.3946875 11.686875 25.25 12.25 C25.99765625 12.72953125 26.7453125 13.2090625 27.515625 13.703125 C29.64512174 16.998241 28.91511044 19.39575916 28.38085938 23.18603516 C25.37503779 45.39443235 30.05134697 62.97883016 41 82 C41.67949679 83.32684073 42.35330586 84.65686601 43 86 C34.74217501 82.25418248 27.77173524 78.03841704 21 72 C20.28972656 71.37222656 19.57945312 70.74445313 18.84765625 70.09765625 C8.08664564 59.99759063 -0.47486657 44.04041772 -1.12939453 29.03320312 C-1.13052246 27.96005859 -1.13165039 26.88691406 -1.1328125 25.78125 C-1.13410156 24.60175781 -1.13539063 23.42226562 -1.13671875 22.20703125 C-1.13285156 20.98371094 -1.12898437 19.76039063 -1.125 18.5 C-1.12886719 17.27667969 -1.13273438 16.05335938 -1.13671875 14.79296875 C-1.13542969 13.61347656 -1.13414062 12.43398437 -1.1328125 11.21875 C-1.13168457 10.14560547 -1.13055664 9.07246094 -1.12939453 7.96679688 C-1.008713 5.19977419 -0.62707019 2.69260327 0 0 Z " fill="#FFDE5B" transform="translate(130,158)"/>
<path d="M0 0 C0.495 0.99 0.495 0.99 1 2 C-6.76282471 22.66659295 -20.18372137 40.23643173 -40.5234375 49.5234375 C-52.85363644 54.76030851 -64.8167746 54.34312987 -78 54 C-74.9122807 51.44144814 -71.87529941 49.26166339 -68.375 47.3125 C-51.94926327 37.58416188 -39.51273666 23.56584928 -34.0625 5.125 C-33.86785156 4.34382812 -33.67320312 3.56265625 -33.47265625 2.7578125 C-33 1 -33 1 -32 0 C-21.64503423 -1.86389384 -10.35986723 -1.78618401 0 0 Z " fill="#FFDE5B" transform="translate(279,197)"/>
<path d="M0 0 C0.35191406 1.01578125 0.70382813 2.0315625 1.06640625 3.078125 C9.32058774 26.33449409 22.81453574 42.06287734 45 53 C45 53.33 45 53.66 45 54 C24.1262134 54.54329797 6.7465812 52.77131297 -9.5 38.5 C-11.02244007 37.02278092 -12.52451831 35.52412394 -14 34 C-14.62132813 33.37609375 -15.24265625 32.7521875 -15.8828125 32.109375 C-23.95725699 23.49180645 -29.48828112 12.82378713 -34 2 C-25.11979157 -3.92013895 -10.11614544 -1.40999372 0 0 Z " fill="#FFDE5B" transform="translate(124,197)"/>
<path d="M0 0 C5.74967305 6.12421161 6.46004634 11.60837418 6.3125 19.76953125 C5.73288488 25.76130254 3.52776228 29.88280168 -0.9375 33.875 C-7.21737983 38.23246764 -12.2967505 38.28305448 -19.75 38.1875 C-21.20599609 38.1865332 -21.20599609 38.1865332 -22.69140625 38.18554688 C-29.85956743 38.14043257 -29.85956743 38.14043257 -31 37 C-31.08871273 33.97022196 -31.1151935 30.96332978 -31.09765625 27.93359375 C-31.0962413 27.02497086 -31.09482635 26.11634796 -31.09336853 25.18019104 C-31.08775193 22.26592779 -31.07519665 19.35174019 -31.0625 16.4375 C-31.05748714 14.46679798 -31.05292386 12.49609476 -31.04882812 10.52539062 C-31.03777711 5.68356441 -31.02050138 0.84179505 -31 -4 C-19.70489708 -5.64313551 -10.12431473 -6.17522208 0 0 Z " fill="#6F54A6" transform="translate(769,182)"/>
<path d="M0 0 C2.97 0 5.94 0 9 0 C10.27339482 2.51956743 11.54376642 5.04058649 12.8125 7.5625 C13.16892578 8.26697266 13.52535156 8.97144531 13.89257812 9.69726562 C16.09092409 14.07378925 18.11663926 18.47874598 20 23 C22.38347867 20.61652133 23.08372364 18.5714801 24.3125 15.4375 C26.50937767 10.01722742 29.05495411 5.0486501 32 0 C34.97 0 37.94 0 41 0 C42.81854013 13.98333772 43.54704307 27.91065559 44 42 C40.7 42 37.4 42 34 42 C33.93941406 40.50726563 33.87882813 39.01453125 33.81640625 37.4765625 C33.73200827 35.52603138 33.6473599 33.57551108 33.5625 31.625 C33.52318359 30.64015625 33.48386719 29.6553125 33.44335938 28.640625 C33.40146484 27.69960937 33.35957031 26.75859375 33.31640625 25.7890625 C33.26141968 24.48509521 33.26141968 24.48509521 33.20532227 23.15478516 C33.12598456 20.9516738 33.12598456 20.9516738 32 19 C31.03654556 20.87237371 30.07946898 22.7480299 29.125 24.625 C28.59132813 25.66914063 28.05765625 26.71328125 27.5078125 27.7890625 C26.08545709 30.81801625 24.9877999 33.80643334 24 37 C21.69 37 19.38 37 17 37 C15.87327825 34.60496313 14.74857442 32.2090129 13.625 29.8125 C13.30789063 29.13896484 12.99078125 28.46542969 12.6640625 27.77148438 C10.99988576 24.21777362 9.40908239 20.66503752 8 17 C7.27586627 20.31143006 6.83645745 23.47844221 6.68359375 26.86328125 C6.64169922 27.74951172 6.59980469 28.63574219 6.55664062 29.54882812 C6.49766602 30.9168457 6.49766602 30.9168457 6.4375 32.3125 C6.39431641 33.24384766 6.35113281 34.17519531 6.30664062 35.13476562 C6.20102876 37.42302277 6.10005565 39.71149318 6 42 C3.03 42 0.06 42 -3 42 C-3.28156776 28.03111071 -3.4101384 13.64055359 0 0 Z " fill="#6D52A5" transform="translate(501,178)"/>
<path d="M0 0 C3.3 0 6.6 0 10 0 C11.4861165 3.0592984 12.96405394 6.12210614 14.4375 9.1875 C14.85837891 10.05181641 15.27925781 10.91613281 15.71289062 11.80664062 C16.11572266 12.64775391 16.51855469 13.48886719 16.93359375 14.35546875 C17.4913147 15.51018677 17.4913147 15.51018677 18.06030273 16.68823242 C19.04652149 19.11444842 19.56736479 21.42213215 20 24 C20.66 24 21.32 24 22 24 C22.5259375 22.2365625 22.5259375 22.2365625 23.0625 20.4375 C25.39955405 13.35826832 28.77472581 6.70680304 32 0 C34.97 0 37.94 0 41 0 C43.37008551 14.0594393 44.16432117 27.77708955 44 42 C41.03 42 38.06 42 35 42 C34.01 29.13 34.01 29.13 33 16 C30.03 22.93 27.06 29.86 24 37 C21.69 37 19.38 37 17 37 C12.545 26.605 12.545 26.605 8 16 C7.71113637 23.4340229 7.71113637 23.4340229 7.43188477 30.8684082 C7.39377686 31.79484131 7.35566895 32.72127441 7.31640625 33.67578125 C7.26141968 35.0975769 7.26141968 35.0975769 7.20532227 36.5480957 C7 39 7 39 6 42 C3.03 42 0.06 42 -3 42 C-2.49176007 27.9297788 -1.56322084 13.99310305 0 0 Z " fill="#6C51A4" transform="translate(822,178)"/>
<path d="M0 0 C8 0 8 0 10.94140625 2.4921875 C11.84067577 3.59950568 12.71368371 4.7285489 13.5625 5.875 C14.25629761 6.75224731 14.25629761 6.75224731 14.96411133 7.6472168 C18.84968533 12.61591061 22.48391098 17.76493412 26 23 C26.33 15.41 26.66 7.82 27 0 C29.97 0 32.94 0 36 0 C36 13.86 36 27.72 36 42 C28 42 28 42 26.08544922 40.47460938 C25.66279785 39.77142578 25.24014648 39.06824219 24.8046875 38.34375 C24.31613281 37.56773437 23.82757813 36.79171875 23.32421875 35.9921875 C22.60685547 34.75855469 22.60685547 34.75855469 21.875 33.5 C20.89555053 31.90482234 19.91378862 30.31106216 18.9296875 28.71875 C18.50929199 28.00654297 18.08889648 27.29433594 17.65576172 26.56054688 C15.29484348 22.90951318 12.60872258 19.47829678 10 16 C9.67 24.58 9.34 33.16 9 42 C6.03 42 3.06 42 0 42 C0 28.14 0 14.28 0 0 Z " fill="#6A4EA3" transform="translate(453,178)"/>
<path d="M0 0 C2.29418033 -0.01433863 4.52928012 0.0814769 6.8125 0.296875 C11.32820715 9.35732921 15.18398377 18.57346855 18.75 28.046875 C19.1514624 29.10648438 19.5529248 30.16609375 19.96655273 31.2578125 C20.33723877 32.25554687 20.7079248 33.25328125 21.08984375 34.28125 C21.42234131 35.17553711 21.75483887 36.06982422 22.09741211 36.99121094 C22.8125 39.296875 22.8125 39.296875 22.8125 42.296875 C19.5125 42.296875 16.2125 42.296875 12.8125 42.296875 C11.8225 39.656875 10.8325 37.016875 9.8125 34.296875 C4.2025 33.966875 -1.4075 33.636875 -7.1875 33.296875 C-7.8475 36.266875 -8.5075 39.236875 -9.1875 42.296875 C-12.4875 42.296875 -15.7875 42.296875 -19.1875 42.296875 C-18.71250111 37.66563584 -17.29532378 34.0774529 -15.359375 29.91796875 C-14.01749224 26.91662432 -12.85008775 23.87199137 -11.6875 20.796875 C-9.93563902 16.19689647 -8.15941974 11.63266881 -6.06640625 7.17578125 C-5.30993213 5.5586077 -4.64545667 3.89897377 -4 2.234375 C-2.1875 0.296875 -2.1875 0.296875 0 0 Z " fill="#6D52A5" transform="translate(626.1875,177.703125)"/>
<path d="M0 0 C2.97 0 5.94 0 9 0 C26 30.45364238 26 30.45364238 26 42 C22.7 42 19.4 42 16 42 C15.01 39.03 14.02 36.06 13 33 C7.39 33 1.78 33 -4 33 C-4.33 34.32 -4.66 35.64 -5 37 C-5.6469365 38.6744239 -6.30959426 40.34302621 -7 42 C-10.3 42 -13.6 42 -17 42 C-14.55631242 32.68344112 -10.75171033 24.00550895 -6.94262695 15.18432617 C-6.07336515 13.17000725 -5.21368756 11.15185289 -4.35546875 9.1328125 C-3.01133128 6.0261893 -1.54283364 3.01219901 0 0 Z " fill="#6D52A5" transform="translate(707,178)"/>
<path d="M0 0 C3.3 0 6.6 0 10 0 C14.59555082 10.47285392 19.10693182 20.95334148 23.0625 31.6875 C23.36099854 32.49421143 23.65949707 33.30092285 23.96704102 34.13208008 C26 39.73469906 26 39.73469906 26 42 C22.7 42 19.4 42 16 42 C14.515 37.545 14.515 37.545 13 33 C3.35289385 32.33028597 3.35289385 32.33028597 -4.953125 35.84765625 C-6.18883525 38.27891183 -6.18883525 38.27891183 -7 42 C-9.97 42 -12.94 42 -16 42 C-14.15664366 33.5475368 -11.52364104 25.8879477 -8 18 C-7.29906525 16.41424539 -6.59857662 14.82829355 -5.8984375 13.2421875 C-3.94370392 8.82297766 -1.97481984 4.41026763 0 0 Z " fill="#6C51A4" transform="translate(421,178)"/>
<path d="M0 0 C3.3 0 6.6 0 10 0 C10 29.04 10 58.08 10 88 C6.7 88 3.4 88 0 88 C0 58.96 0 29.92 0 0 Z " fill="#6A4EA3" transform="translate(323,154)"/>
<path d="M0 0 C9.57 0 19.14 0 29 0 C29 2.64 29 5.28 29 8 C22.73 8 16.46 8 10 8 C10 10.64 10 13.28 10 16 C15.61 16 21.22 16 27 16 C27 18.64 27 21.28 27 24 C21.39 24 15.78 24 10 24 C10 27.3 10 30.6 10 34 C16.6 34 23.2 34 30 34 C30 36.64 30 39.28 30 42 C20.1 42 10.2 42 0 42 C0 28.14 0 14.28 0 0 Z " fill="#6E53A5" transform="translate(783,178)"/>
<path d="M0 0 C2.97 0 5.94 0 9 0 C9.01981934 0.75095947 9.03963867 1.50191895 9.06005859 2.27563477 C9.15579401 5.70491957 9.26527633 9.13363542 9.375 12.5625 C9.4059375 13.74392578 9.436875 14.92535156 9.46875 16.14257812 C9.66857974 22.08751275 9.97239097 27.38698477 12 33 C16.34378986 34.01018369 19.058684 34.25218057 23 32 C24.12183708 28.63448877 24.20800968 25.90939768 24.31640625 22.36328125 C24.35830078 21.06455078 24.40019531 19.76582031 24.44335938 18.42773438 C24.48316987 17.05599239 24.52288216 15.68424756 24.5625 14.3125 C24.60570835 12.92902355 24.64932339 11.54555973 24.69335938 10.16210938 C24.79958028 6.77484281 24.90162358 3.38750201 25 0 C27.97 0 30.94 0 34 0 C34.09965569 4.26832981 34.17183391 8.53602469 34.21972656 12.80517578 C34.23971295 14.25418917 34.26691197 15.70312325 34.30175781 17.15185547 C34.65468027 32.21334027 34.65468027 32.21334027 30 39 C25.27296685 42.66345069 20.24211351 43.40957538 14.3828125 43.3515625 C9.3112521 42.60329949 5.44657941 39.58657097 2.0625 35.875 C-0.21260603 31.860107 -0.11614335 28.45511982 -0.09765625 23.92578125 C-0.0962413 23.2419487 -0.09482635 22.55811615 -0.09336853 21.8535614 C-0.08777876 19.67316278 -0.07522822 17.49286749 -0.0625 15.3125 C-0.05748367 13.83268378 -0.052921 12.35286594 -0.04882812 10.87304688 C-0.03781271 7.24866443 -0.02055512 3.6243423 0 0 Z " fill="#6B4FA3" transform="translate(553,178)"/>
<path d="M0 0 C3.3 0 6.6 0 10 0 C12.58993813 6.27561932 14.97622187 12.60440864 17.25 19 C17.52021973 19.754021 17.79043945 20.50804199 18.06884766 21.28491211 C20 26.75982215 20 26.75982215 20 29 C22.18872296 28.18987714 22.18872296 28.18987714 22.74609375 25.99609375 C23.08833984 24.72958984 23.08833984 24.72958984 23.4375 23.4375 C25.71934162 15.39400831 28.87822732 7.75060803 32 0 C35.3 0 38.6 0 42 0 C39.10124953 10.33178492 36.08109411 20.51529099 31 30 C30.4666805 31.22380079 29.94552095 32.45298278 29.4375 33.6875 C28.963125 34.780625 28.48875 35.87375 28 37 C27.62875 37.969375 27.2575 38.93875 26.875 39.9375 C25 42 25 42 22.84814453 42.20141602 C22.03458496 42.17748779 21.22102539 42.15355957 20.3828125 42.12890625 C19.56441895 42.11029541 18.74602539 42.09168457 17.90283203 42.07250977 C16.96093018 42.03661743 16.96093018 42.03661743 16 42 C6.16649543 19.8002069 6.16649543 19.8002069 2.375 9.75 C2.1279834 9.10224609 1.8809668 8.45449219 1.62646484 7.78710938 C0.60801071 5.02839137 0 2.9700782 0 0 Z " fill="#6D52A5" transform="translate(361,178)"/>
<path d="M0 0 C0.928125 0.495 1.85625 0.99 2.8125 1.5 C2.4825 3.48 2.1525 5.46 1.8125 7.5 C-2.9375 8.625 -2.9375 8.625 -5.1875 7.5 C-9.85273669 7.45936205 -13.92760096 7.57812266 -17.75 10.375 C-20.53678714 14.49459839 -20.68214708 18.67719097 -20.1875 23.5 C-19.33419586 26.72498771 -18.35058676 29.65005198 -15.5625 31.6875 C-12.1996942 32.83793356 -8.94405294 32.71117238 -5.4375 32.625 C-4.74011719 32.61597656 -4.04273438 32.60695312 -3.32421875 32.59765625 C-1.61183042 32.57419888 0.10038004 32.53833104 1.8125 32.5 C3.859375 36.21875 3.859375 36.21875 3.4375 38.75 C3.23125 39.3275 3.025 39.905 2.8125 40.5 C-4.1424304 42.97286414 -12.03032114 44.05980072 -19.0625 41.25 C-25.24446733 37.7880983 -28.05391423 34.96757509 -30.453125 28.28125 C-32.20292121 21.65436223 -32.2236906 15.79392535 -29.0625 9.625 C-22.65877322 -0.48709964 -11.36649463 -4.88458323 0 0 Z " fill="#6E53A5" transform="translate(684.1875,178.5)"/>
<path d="M0 0 C3.63 0 7.26 0 11 0 C13.64 5.28 16.28 10.56 19 16 C21.55820816 12.58905579 23.32943579 9.54870905 25.1875 5.75 C25.98220703 4.13351563 25.98220703 4.13351563 26.79296875 2.484375 C27.19128906 1.66453125 27.58960938 0.8446875 28 0 C31.3 0 34.6 0 38 0 C37.01122686 3.76562704 35.63336829 6.71997427 33.43359375 9.890625 C25.94265838 20.71127927 23.33125266 28.84278493 24 42 C21.03 42 18.06 42 15 42 C15.03222656 41.01902344 15.06445312 40.03804687 15.09765625 39.02734375 C15.12474881 28.18083628 12.19635553 21.46587007 6.10400391 12.63183594 C4.58521142 10.38689808 3.25102769 8.05714937 1.9375 5.6875 C1.55464844 5.01074219 1.17179688 4.33398438 0.77734375 3.63671875 C0 2 0 2 0 0 Z " fill="#6A4FA3" transform="translate(871,178)"/>
<path d="M0 0 C7.73254516 0 10.56121355 0.10639024 16 5 C18.95710298 10.08621713 17.8185122 15.40314633 17 21 C16.34 21 15.68 21 15 21 C15 21.99 15 22.98 15 24 C10.18229357 28.33593579 7.17799895 27 0 27 C0 18.09 0 9.18 0 0 Z " fill="#FBFAFC" transform="translate(748,185)"/>
<path d="M0 0 C2.38125464 2.38125464 3.00186241 4.33857567 4.125 7.5 C4.65480469 8.96953125 4.65480469 8.96953125 5.1953125 10.46875 C6 13 6 13 6 15 C2.04 15 -1.92 15 -6 15 C-5.19093245 12.68624595 -4.37793083 10.37401052 -3.5625 8.0625 C-3.33240234 7.40314453 -3.10230469 6.74378906 -2.86523438 6.06445312 C-1.11328125 1.11328125 -1.11328125 1.11328125 0 0 Z " fill="#F6F5FA" transform="translate(711,188)"/>
<path d="M0 0 C2.07213214 2.59451839 3.55140478 4.94274645 4.6875 8.0625 C4.93886719 8.73410156 5.19023437 9.40570313 5.44921875 10.09765625 C6 12 6 12 6 15 C2.37 15 -1.26 15 -5 15 C-4.23239022 11.16195111 -3.40495674 8.23779856 -1.9375 4.6875 C-1.39416016 3.36298828 -1.39416016 3.36298828 -0.83984375 2.01171875 C-0.56269531 1.34785156 -0.28554688 0.68398437 0 0 Z " fill="#F7F6FA" transform="translate(425,188)"/>
<path d="M0 0 C0.66 0 1.32 0 2 0 C3.65 4.62 5.3 9.24 7 14 C3.37 14 -0.26 14 -4 14 C-3.46148032 8.72250715 -2.22656164 4.74354436 0 0 Z " fill="#F7F5FA" transform="translate(627,189)"/>
</svg>
